<svg width="157" height="157" viewBox="0 0 157 157" fill="none" xmlns="http://www.w3.org/2000/svg">
<g clip-path="url(#clip0_6_4773)">
<path d="M50.7777 75.2221V57.4443H44.111C42.3429 57.4443 40.6472 58.1467 39.397 59.397C38.1467 60.6472 37.4443 62.3429 37.4443 64.111V104.111C37.4476 104.524 37.5658 104.927 37.7856 105.277C38.0054 105.626 38.3182 105.907 38.6888 106.089C39.0458 106.251 39.4395 106.316 39.8298 106.277C40.2201 106.238 40.5932 106.096 40.911 105.867L52.3554 97.4443H82.2221C83.0644 97.4692 83.9027 97.321 84.6853 97.0087C85.4679 96.6964 86.1781 96.2268 86.7718 95.6289C87.3656 95.031 87.8302 94.3175 88.137 93.5328C88.4438 92.748 88.5862 91.9086 88.5555 91.0666V88.5554H64.111C60.5748 88.5554 57.1834 87.1507 54.6829 84.6502C52.1824 82.1497 50.7777 78.7583 50.7777 75.2221Z" fill="#E8F4F2"/>
<path d="M101.889 41.8887H64.111C62.3429 41.8887 60.6472 42.5911 59.397 43.8413C58.1467 45.0915 57.4443 46.7872 57.4443 48.5553V75.222C57.4443 76.9901 58.1467 78.6858 59.397 79.9361C60.6472 81.1863 62.3429 81.8887 64.111 81.8887H94.2221L104.844 90.1331C105.16 90.3666 105.532 90.5122 105.922 90.5551C106.313 90.5981 106.708 90.5368 107.067 90.3776C107.445 90.1975 107.764 89.9141 107.988 89.5603C108.212 89.2064 108.332 88.7964 108.333 88.3776V48.5553C108.334 46.8251 107.662 45.1622 106.46 43.9182C105.257 42.6741 103.618 41.9463 101.889 41.8887Z" fill="#E8F4F2"/>
</g>
<defs>
<clipPath id="clip0_6_4773">
<rect width="80" height="80" fill="white" transform="translate(33 33)"/>
</clipPath>
</defs>
</svg>
