<svg width="82" height="81" viewBox="0 0 82 81" fill="none" xmlns="http://www.w3.org/2000/svg">
<path fill-rule="evenodd" clip-rule="evenodd" d="M6.11813 5.35315C2 9.70258 2 16.7077 2 30.7143V45.5715C2 59.578 2 66.5832 6.11813 70.9326C10.2363 75.2821 16.8597 75.2858 30.1101 75.2858H37.1376C50.3881 75.2858 57.015 75.2858 61.1296 70.9326C65.2442 66.5795 65.2478 59.578 65.2478 45.5715V30.7143C65.2478 16.7077 65.2478 9.70258 61.1296 5.35315C57.0115 1.00371 50.3881 1 37.1376 1H30.1101C16.8597 1 10.2327 1 6.11813 5.35315ZM19.5688 16.5C18.8699 16.5 18.1996 16.7935 17.7054 17.3159C17.2111 17.8384 16.9335 18.5469 16.9335 19.2857C16.9335 20.0245 17.2111 20.7331 17.7054 21.2555C18.1996 21.778 18.8699 22.0714 19.5688 22.0714H47.6789C48.3779 22.0714 49.0482 21.778 49.5424 21.2555C50.0366 20.7331 50.3143 20.0245 50.3143 19.2857C50.3143 18.5469 50.0366 17.8384 49.5424 17.3159C49.0482 16.7935 48.3779 16.5 47.6789 16.5H19.5688ZM19.5688 31.3572C18.8699 31.3572 18.1996 31.6507 17.7054 32.1731C17.2111 32.6955 16.9335 33.4041 16.9335 34.1429C16.9335 34.8817 17.2111 35.5903 17.7054 36.1127C18.1996 36.6351 18.8699 36.9286 19.5688 36.9286H37.1376C37.8366 36.9286 38.5069 36.6351 39.0011 36.1127C39.4953 35.5903 39.773 34.8817 39.773 34.1429C39.773 33.4041 39.4953 32.6955 39.0011 32.1731C38.5069 31.6507 37.8366 31.3572 37.1376 31.3572H19.5688Z" fill="#E8F4F2"/>
<path d="M57 72.5C57.4817 72.5 57.8857 72.3368 58.2121 72.0104C58.5385 71.684 58.7011 71.2805 58.7 70.8V64C58.7 63.5183 58.5368 63.1149 58.2104 62.7896C57.884 62.4643 57.4805 62.3011 57 62.3C56.5195 62.2989 56.116 62.4621 55.7896 62.7896C55.4632 63.1171 55.3 63.5206 55.3 64V70.8C55.3 71.2817 55.4632 71.6857 55.7896 72.0121C56.116 72.3385 56.5195 72.5011 57 72.5ZM57 58.9C57.4817 58.9 57.8857 58.7368 58.2121 58.4104C58.5385 58.084 58.7011 57.6805 58.7 57.2C58.6989 56.7195 58.5357 56.316 58.2104 55.9896C57.8851 55.6632 57.4817 55.5 57 55.5C56.5183 55.5 56.1149 55.6632 55.7896 55.9896C55.4643 56.316 55.3011 56.7195 55.3 57.2C55.2989 57.6805 55.4621 58.0846 55.7896 58.4121C56.1171 58.7396 56.5206 58.9023 57 58.9ZM57 81C54.6483 81 52.4383 80.5535 50.37 79.6604C48.3017 78.7673 46.5025 77.5564 44.9725 76.0275C43.4425 74.4986 42.2315 72.6995 41.3396 70.63C40.4477 68.5605 40.0011 66.3505 40 64C39.9989 61.6495 40.4454 59.4395 41.3396 57.37C42.2338 55.3005 43.4448 53.5014 44.9725 51.9725C46.5002 50.4436 48.2994 49.2327 50.37 48.3396C52.4406 47.4465 54.6506 47 57 47C59.3494 47 61.5594 47.4465 63.63 48.3396C65.7006 49.2327 67.4998 50.4436 69.0275 51.9725C70.5552 53.5014 71.7667 55.3005 72.6621 57.37C73.5574 59.4395 74.0034 61.6495 74 64C73.9966 66.3505 73.55 68.5605 72.6604 70.63C71.7707 72.6995 70.5598 74.4986 69.0275 76.0275C67.4952 77.5564 65.6961 78.7679 63.63 79.6621C61.5639 80.5563 59.3539 81.0023 57 81Z" fill="#0C593E"/>
</svg>
